<svg width="171" height="172" fill="none" xmlns="http://www.w3.org/2000/svg"><path d="M95.314 2.9c3.942-2.772 9.401-1.68 11.973 2.396a8.428 8.428 0 009.934 3.448c4.544-1.605 9.506.92 10.883 5.537a8.428 8.428 0 008.635 6c4.809-.319 8.905 3.451 8.985 8.27a8.43 8.43 0 006.696 8.107c4.716.99 7.645 5.725 6.422 10.386a8.427 8.427 0 004.26 9.613c4.274 2.226 5.816 7.576 3.381 11.734a8.429 8.429 0 001.509 10.407c3.515 3.296 3.556 8.863.09 12.21a8.429 8.429 0 00-1.355 10.428c2.496 4.122 1.033 9.494-3.208 11.782a8.427 8.427 0 00-4.117 9.675c1.29 4.643-1.567 9.421-6.268 10.48a8.428 8.428 0 00-6.576 8.206c-.009 4.818-4.05 8.648-8.862 8.4a8.428 8.428 0 00-8.546 6.127c-1.309 4.637-6.233 7.235-10.8 5.697a8.43 8.43 0 00-9.882 3.595c-2.512 4.112-7.954 5.285-11.937 2.572a8.429 8.429 0 00-10.485.795c-3.528 3.282-9.085 2.944-12.188-.743a8.428 8.428 0 00-10.311-2.064c-4.283 2.209-9.542.383-11.536-4.004a8.428 8.428 0 00-9.371-4.768c-4.72.971-9.292-2.206-10.028-6.968a8.428 8.428 0 00-7.738-7.121c-4.807-.338-8.352-4.631-7.775-9.415a8.429 8.429 0 00-5.53-8.944c-4.538-1.622-6.793-6.712-4.947-11.163a8.428 8.428 0 00-2.912-10.104c-3.932-2.787-4.73-8.297-1.752-12.085A8.428 8.428 0 001.88 80.87c-3.033-3.744-2.316-9.265 1.574-12.11a8.427 8.427 0 002.762-10.145c-1.911-4.424.27-9.547 4.782-11.236a8.428 8.428 0 005.397-9.024c-.647-4.776 2.835-9.12 7.636-9.53a8.428 8.428 0 007.632-7.233c.666-4.772 5.19-8.017 9.924-7.115a8.428 8.428 0 009.3-4.906c1.929-4.417 7.16-6.32 11.475-4.174a8.428 8.428 0 0010.28-2.216C75.69-.55 81.242-.97 84.818 2.26a8.428 8.428 0 0010.496.64z" fill="url(#paint0_linear)"/><defs><linearGradient id="paint0_linear" x1="102.559" y1="-2.194" x2="187.91" y2="20.177" gradientUnits="userSpaceOnUse"><stop stop-color="#AD07C8"/><stop offset=".854" stop-color="#AD07C8"/></linearGradient></defs></svg>