<svg width="66" height="66" fill="none" xmlns="http://www.w3.org/2000/svg"><g clip-path="url(#clip0)"><path d="M32.876-.042c-.056.01-.113.026-.165.041a1.324 1.324 0 00-1.031 1.32v3.96H0v44.88h31.68v2.063L20.171 63.73a1.338 1.338 0 000 1.897 1.338 1.338 0 001.898 0l9.611-9.611v3.382c-.005.475.242.918.655 1.16.412.238.918.238 1.33 0 .413-.242.66-.685.655-1.16v-3.382l9.611 9.611a1.338 1.338 0 001.898 0 1.338 1.338 0 000-1.897L34.32 52.263V50.16H66V5.28H34.32V1.32a1.32 1.32 0 00-1.444-1.361zM2.64 7.92h60.72v39.6H33.248a1.34 1.34 0 00-.537 0H2.64V7.92zm51.48 10.56a2.638 2.638 0 00-2.64 2.64c0 .114.026.222.041.33l-13.53 10.437a2.63 2.63 0 00-1.031-.207c-.366 0-.717.073-1.031.207h-.041l-10.808-7.88c.005-.082 0-.164 0-.247 0-1.459-1.18-2.64-2.64-2.64a2.638 2.638 0 00-2.64 2.64c0 .098.03.191.041.29l-6.93 5.197a2.63 2.63 0 00-1.031-.207 2.638 2.638 0 00-2.64 2.64c0 1.46 1.18 2.64 2.64 2.64 1.46 0 2.64-1.18 2.64-2.64 0-.098-.03-.19-.041-.288l6.93-5.198c.314.134.665.206 1.031.206a2.63 2.63 0 001.031-.206h.041l10.808 7.879c-.005.082 0 .165 0 .247 0 1.46 1.18 2.64 2.64 2.64 1.46 0 2.64-1.18 2.64-2.64 0-.113-.026-.221-.041-.33l13.53-10.436h.041c.304.124.64.206.99.206 1.46 0 2.64-1.18 2.64-2.64 0-1.459-1.18-2.64-2.64-2.64z" fill="#000"/></g><defs><clipPath id="clip0"><path fill="#fff" d="M0 0h66v66H0z"/></clipPath></defs></svg>