<svg width="66" height="66" fill="none" xmlns="http://www.w3.org/2000/svg"><g clip-path="url(#clip0)"><path d="M25.291 11.55a1.329 1.329 0 00-.43.1s-8.108 3.358-13.422 5.883a1.32 1.32 0 00.113 2.432c1.488.542 2.355 1.158 2.772 1.675.35.436.454.79.415 1.256-1.982 1.61-3.626 3.426-5.056 5.027C8.377 26.68 5.951 24.19 1.32 24.19a1.32 1.32 0 00-1.235 1.784c.743 1.982 1.557 3.134 2.068 4.123.51.988.822 1.843.822 3.81 0 2.12-.315 2.918-.83 3.878-.515.96-1.357 2.128-2.076 4.269a1.32 1.32 0 001.25 1.74c4.33 0 6.798-2.383 8.351-3.761 1.892 2.05 3.572 4.046 5.912 5.617a15.526 15.526 0 003.364 1.702c.005.053.014.096.016.147.02.46.023.927.03 1.206.035 1.235-.411 2.512-1.296 3.581a1.32 1.32 0 00.99 2.161c3.02.06 5.913-.731 8.5-1.815 3.037-1.272 5.088-2.819 6.476-5.187a31.398 31.398 0 003.76-1.676c2.788-1.46 4.728-2.944 4.728-2.944a1.32 1.32 0 00.03-2.07l-6.084-4.979 7.165-7.164a1.32 1.32 0 000-1.867c-1.852-1.852-4.84-4.4-8.598-6.144-1.6-3.63-3.723-5.888-5.507-7.21-1.868-1.386-3.473-1.803-3.473-1.803a1.319 1.319 0 00-.392-.038zm.062 2.763c.21.059.894.206 2.23 1.197 1.045.774 2.27 1.966 3.403 3.761a18.579 18.579 0 00-4.723-.632c-3.72 0-6.712 1.062-9.201 2.584a4.444 4.444 0 00-.68-1.238c-.353-.436-1.112-.674-1.617-1.029a594.664 594.664 0 0110.588-4.643zm.91 6.966c5.972 0 11.047 3.72 14.074 6.523l-7.139 7.139a1.32 1.32 0 00.098 1.954l5.79 4.739c-.713.5-1.168.898-2.887 1.797-2.583 1.352-5.958 2.644-8.933 2.601-5.098-.073-7.971-1.068-10.212-2.573-2.24-1.505-3.917-3.656-6.3-6.141a1.32 1.32 0 00-1.746-.142c-1.566 1.178-3.03 2.887-5.401 3.61.289-.522.573-1.213.863-1.754.639-1.19 1.145-2.688 1.145-5.125 0-2.295-.485-3.799-1.116-5.022-.28-.542-.572-1.184-.861-1.7 2.547.724 3.807 2.503 5.396 3.639a1.32 1.32 0 001.742-.186c3.743-4.116 7.688-9.359 15.487-9.359zm30.915 3.44a1.302 1.302 0 00-.14.015l-4.037.64c-.03.004-.059.009-.088.015-1.515.346-2.554 1.57-2.985 3.034-5.056 1.404-6.724 6.062-6.724 6.062a1.32 1.32 0 00.052.933s2.025 4.176 7.102 5.337c.722.983 1.705 1.607 2.573 1.951 1.047.416 1.97.567 1.97.567a1.319 1.319 0 001.54-1.302v-1.459c1.665-.542 2.985-1.301 3.98-2.163.823.727 2.105 1.756 4.259 1.756a1.32 1.32 0 001.23-1.797c-1.148-2.961-1.143-4.513.005-7.554a1.32 1.32 0 00-1.235-1.787c-2.244 0-3.529 1.041-4.27 1.733-.749-.624-1.629-1.17-2.655-1.642l.758-2.658a1.32 1.32 0 00-1.335-1.681zm-26.341 1.44a2.624 2.624 0 100 5.247 2.624 2.624 0 000-5.246zm24.57 1.506l-.496 1.728a1.32 1.32 0 00.83 1.608c1.602.567 3.077 1.584 3.705 2.29a1.32 1.32 0 001.75.196c.724-.517 1.211-.995 1.78-1.361a11.658 11.658 0 00-.008 4.803c-.58-.365-1.098-.838-1.743-1.323a1.32 1.32 0 00-1.776.173c-.749.833-2.49 2.105-4.61 2.565a1.32 1.32 0 00-1.039 1.292v.541c-.7-.305-1.361-.757-1.526-1.106a1.32 1.32 0 00-.967-.737c-3.704-.645-4.982-2.883-5.319-3.538.267-.714 1.369-3.34 5.13-4.063a1.32 1.32 0 001.07-1.296c0-.773.429-1.267 1.308-1.47l1.91-.302zm-4.92 4.646a1.32 1.32 0 10.001 2.641 1.32 1.32 0 000-2.64zm-28.87 15.786c1.618.338 3.46.541 5.61.572.68.01 1.354-.045 2.024-.128-.8.588-1.783 1.109-3.086 1.655-1.616.677-3.325 1.1-5.048 1.35.35-.934.54-1.916.513-2.913-.002-.083-.01-.356-.013-.536z" fill="#000"/></g><defs><clipPath id="clip0"><path fill="#fff" d="M0 0h66v66H0z"/></clipPath></defs></svg>