<svg width="66" height="66" fill="none" xmlns="http://www.w3.org/2000/svg"><path d="M6.394 7.92c-2.078 0-3.754 1.743-3.754 3.816V56.76c0 .727.593 1.32 1.32 1.32h58.08c.727 0 1.32-.593 1.32-1.32V11.736c0-2.073-1.676-3.816-3.754-3.816H6.394zm0 2.64h53.212c.614 0 1.114.495 1.114 1.175V23.76H5.28V11.735c0-.68.5-1.175 1.114-1.175zM25.08 13.2v7.92h31.68V13.2H25.08zm-14.52 1.32c-1.46 0-2.64 1.18-2.64 2.64 0 1.46 1.18 2.64 2.64 2.64 1.46 0 2.64-1.18 2.64-2.64 0-1.46-1.18-2.64-2.64-2.64zm7.92 0c-1.46 0-2.64 1.18-2.64 2.64 0 1.46 1.18 2.64 2.64 2.64 1.46 0 2.64-1.18 2.64-2.64 0-1.46-1.18-2.64-2.64-2.64zm9.24 1.32h26.4v2.64h-26.4v-2.64zM5.28 26.4h55.44v29.04H5.28V26.4zm3.96 3.96v9.24h29.04v-9.24H9.24zm33 0v21.12h14.52V30.36H42.24zM11.88 33h23.76v3.96H11.88V33zm33 0h9.24v15.84h-9.24V33zM9.24 42.24v9.24h29.04v-9.24H9.24zm2.64 2.64h23.76v3.96H11.88v-3.96z" fill="#000"/></svg>