<svg width="66" height="66" fill="none" xmlns="http://www.w3.org/2000/svg"><g clip-path="url(#clip0)"><path d="M65.475 11.746c-.134-.392-.531-.79-.929-.79-.391-.133-.923 0-1.186.398l-6.996 6.992c-.398.397-1.186.397-1.583 0l-6.998-6.992c-.397-.397-.397-1.191 0-1.588l6.998-7.126c.263-.263.397-.794.397-1.186-.134-.397-.397-.794-.794-.928-5.28-1.846-13.727 1.98-17.16 5.414-3.43 3.434-3.826 8.183-1.058 13.334l-.262.263L33 16.5c-2.505-2.774-5.94-4.357-9.765-4.486-3.831-.134-7.26 1.32-9.9 3.96l-9.24 9.24c-5.28 5.28-5.28 13.86 0 19.14L6.6 46.86l-3.96 3.697C1.583 51.614.398 53.46 0 55.837c-.135 1.98 0 4.749 2.64 7.523C4.755 65.474 6.998 66 8.843 66c.398 0 .923 0 1.32-.134 2.377-.392 4.223-1.583 5.28-2.64l4.492-4.62c.263 0 .526.134.923.134 2.108 0 4.088-1.057 5.145-2.774a5.9 5.9 0 002.114.397c3.038 0 5.543-2.11 6.07-5.017.397.134.794.134 1.19.134 3.038 0 5.543-2.114 6.07-5.017.396.134.793.134 1.19.134a6.2 6.2 0 006.203-6.203c0-1.851-.923-3.697-2.377-4.888l-2.64-2.64 2.903-2.903c5.151 2.774 9.772 2.377 13.334-1.057 3.435-3.563 7.26-12.01 5.415-17.16zM13.598 61.38c-.66.66-2.115 1.583-3.832 1.846-1.98.268-3.691-.392-5.145-1.846-1.583-1.583-2.115-3.3-1.846-5.146.263-1.717 1.186-3.037 1.846-3.831l3.825-3.697 7.658 7.657c.396.397.794.794 1.32 1.19l-3.826 3.827zM44.88 37.486c.923.66 1.455 1.717 1.455 2.774a3.552 3.552 0 01-3.569 3.563c-.66 0-1.185-.13-1.846-.526l-2.377-1.454.398 2.774v.526a3.547 3.547 0 01-3.564 3.563c-.66 0-1.19-.13-1.85-.526l-2.372-1.454.391 2.774v.526a3.552 3.552 0 01-3.563 3.568c-.66 0-1.448-.268-1.98-.66l-1.448-.928-.532 1.588c-.526 1.449-1.846 2.372-3.3 2.372-1.057 0-2.108-.526-2.768-1.32L5.806 42.503c-4.223-4.223-4.223-11.22 0-15.443l9.24-9.24c2.114-2.114 5.018-3.3 8.055-3.166 3.037.129 5.805 1.32 7.92 3.692l3.036 3.17-.794.79-.262-.392a1.268 1.268 0 00-1.846 0 1.268 1.268 0 000 1.846l13.591 13.597.134.129zm13.2-10.56c-3.563 3.568-7.92 2.114-10.956.134-.527-.263-1.187-.263-1.584.263l-3.563 3.563-6.862-6.863 3.563-3.563a1.403 1.403 0 00.263-1.583c-1.846-3.171-3.3-7.523.134-10.957 2.505-2.506 7.92-5.146 12.008-5.28l-5.145 5.146c-1.455 1.454-1.455 3.83 0 5.414l6.997 6.997c1.448 1.449 3.825 1.449 5.408 0l5.152-5.151c-.134 3.96-2.909 9.374-5.414 11.88z" fill="#000"/></g><defs><clipPath id="clip0"><path fill="#fff" d="M0 0h66v66H0z"/></clipPath></defs></svg>