<svg width="66" height="66" fill="none" xmlns="http://www.w3.org/2000/svg"><g clip-path="url(#clip0)"><path d="M3.712 0C1.685 0-.001 1.686-.001 3.712v6.6a.994.994 0 000 .248V52.8c0 .727.593 1.32 1.32 1.32h30.36c.475.005.918-.242 1.16-.655a1.333 1.333 0 000-1.33 1.328 1.328 0 00-1.16-.655H2.64v-39.6h52.8V33c-.005.474.242.918.655 1.16.413.237.918.237 1.33 0 .413-.242.66-.686.655-1.16V10.56a.995.995 0 000-.248v-6.6C58.08 1.687 56.393 0 54.367 0H3.712zm0 2.64h50.655c.613 0 1.072.459 1.072 1.072V9.24H2.64V3.713c0-.614.46-1.073 1.073-1.073zM9.239 19.8v2.64h5.28V19.8H9.24zm9.24 0v2.64h30.36V19.8H18.48zm-9.24 6.6v2.64h5.28V26.4H9.24zm9.24 0v2.64h30.36V26.4H18.48zM9.24 33v2.64h5.28V33H9.24zm9.24 0v2.64h18.48V33H18.48zm29.04 1.32c-7.275 0-13.2 5.925-13.2 13.2 0 7.275 5.925 13.2 13.2 13.2 3.161 0 6.059-1.109 8.333-2.97l7.878 7.879 1.898-1.898-7.879-7.879a13.098 13.098 0 002.97-8.332c0-7.276-5.924-13.2-13.2-13.2zm0 2.64a10.54 10.54 0 0110.56 10.56 10.54 10.54 0 01-10.56 10.56 10.54 10.54 0 01-10.56-10.56 10.54 10.54 0 0110.56-10.56zM9.24 39.6v2.64h5.28V39.6H9.24zm9.24 0v2.64h13.2V39.6h-13.2z" fill="#000"/></g><defs><clipPath id="clip0"><path fill="#fff" d="M0 0h66v66H0z"/></clipPath></defs></svg>