<svg width="66" height="66" fill="none" xmlns="http://www.w3.org/2000/svg"><path d="M7.92 0C3.563 0 0 3.563 0 7.92c0 4.357 3.563 7.92 7.92 7.92a7.834 7.834 0 004.579-1.485L22.77 24.668a13.098 13.098 0 00-.866 15.427l-8.663 6.848A7.902 7.902 0 007.92 44.88C3.563 44.88 0 48.443 0 52.8c0 4.357 3.563 7.92 7.92 7.92 4.357 0 7.92-3.563 7.92-7.92 0-1.382-.36-2.66-.99-3.795l8.704-6.848C25.957 44.633 29.288 46.2 33 46.2c1.753 0 3.419-.325 4.95-.949l3.465 6.559c-1.892 1.449-3.135 3.712-3.135 6.27 0 4.357 3.563 7.92 7.92 7.92 4.357 0 7.92-3.563 7.92-7.92 0-4.357-3.563-7.92-7.92-7.92-.861 0-1.696.155-2.475.413l-3.465-6.56a13.278 13.278 0 005.321-7.012l4.579.949c-.005.108 0 .222 0 .33 0 4.357 3.563 7.92 7.92 7.92 4.357 0 7.92-3.563 7.92-7.92 0-4.357-3.563-7.92-7.92-7.92a7.937 7.937 0 00-7.384 5.032l-4.578-.99c.046-.458.082-.933.082-1.402 0-5.192-3.047-9.689-7.425-11.839l2.021-5.445a8.35 8.35 0 001.444.124c4.357 0 7.92-3.563 7.92-7.92 0-4.357-3.563-7.92-7.92-7.92-4.357 0-7.92 3.563-7.92 7.92 0 2.924 1.63 5.476 4.001 6.848L36.3 20.253c-1.062-.279-2.155-.454-3.3-.454-3.16 0-6.059 1.109-8.332 2.97l-10.314-10.27A7.834 7.834 0 0015.84 7.92C15.84 3.563 12.277 0 7.92 0zm0 2.64a5.257 5.257 0 015.28 5.28 5.257 5.257 0 01-5.28 5.28 5.257 5.257 0 01-5.28-5.28 5.257 5.257 0 015.28-5.28zm34.32 0a5.257 5.257 0 015.28 5.28 5.257 5.257 0 01-5.28 5.28 5.257 5.257 0 01-5.28-5.28 5.257 5.257 0 015.28-5.28zM33 22.44A10.54 10.54 0 0143.56 33c0 5.852-4.708 10.56-10.56 10.56A10.538 10.538 0 0122.44 33a10.51 10.51 0 012.929-7.301c.108-.083.206-.18.288-.289A10.518 10.518 0 0133 22.44zM58.08 33a5.257 5.257 0 015.28 5.28 5.257 5.257 0 01-5.28 5.28 5.257 5.257 0 01-5.28-5.28A5.257 5.257 0 0158.08 33zM7.92 47.52a5.257 5.257 0 015.28 5.28 5.257 5.257 0 01-5.28 5.28 5.257 5.257 0 01-5.28-5.28 5.257 5.257 0 015.28-5.28zM46.2 52.8a5.257 5.257 0 015.28 5.28 5.257 5.257 0 01-5.28 5.28 5.257 5.257 0 01-5.28-5.28c0-2 1.093-3.723 2.722-4.62.042-.01.083-.026.124-.041.016-.01.026-.031.041-.041A5.319 5.319 0 0146.2 52.8z" fill="#000"/></svg>