<svg width="66" height="66" fill="none" xmlns="http://www.w3.org/2000/svg"><path d="M47.396 1.32a1.322 1.322 0 00-.99.825L45.17 5.198A30.377 30.377 0 0033.247 2.64a1.341 1.341 0 00-.536 0h-.041C16.22 2.816 2.882 16.114 2.64 32.547a1.313 1.313 0 000 .866C2.862 49.975 16.386 63.36 33 63.36c16.752 0 30.36-13.607 30.36-30.36 0-4.32-.928-8.446-2.558-12.169l3.053-1.237a1.313 1.313 0 00.742-1.732A30.389 30.389 0 0048.14 1.401a1.328 1.328 0 00-.62-.082h-.123zm.908 3.177c5.65 2.66 10.358 7.167 13.2 13.2l-2.352.99h-.04a1.31 1.31 0 00-1.156.453v.041L38.981 27.02l7.961-19.222a.61.61 0 00.042-.083c.072-.113.128-.237.165-.371a1.36 1.36 0 00.082-.248l1.073-2.598zm-16.748.825h.124V31.68H5.32C5.981 17.44 17.33 6.043 31.556 5.322zm2.764 0c3.486.16 6.785.938 9.817 2.268L35.31 28.958a1.324 1.324 0 00.278 1.454c.382.381.96.49 1.454.278l21.368-8.827A27.738 27.738 0 0160.72 33c0 7.178-2.754 13.685-7.219 18.604L34.32 32.423V5.322zm-29 28.998h27.101l19.182 19.181c-4.92 4.466-11.427 7.22-18.604 7.22-14.886 0-26.998-11.685-27.679-26.4z" fill="#000"/></svg>