<svg width="171" height="172" viewBox="0 0 171 172" fill="none" xmlns="http://www.w3.org/2000/svg">
<path d="M95.3137 2.89938C99.2557 0.128101 104.715 1.22057 107.287 5.29552C109.387 8.62285 113.511 10.0541 117.221 8.74363C121.765 7.13871 126.727 9.66357 128.104 14.2813C129.229 18.052 132.813 20.5426 136.739 20.2817C141.548 19.9622 145.644 23.7321 145.724 28.5503C145.791 32.4846 148.57 35.8498 152.42 36.6578C157.136 37.6474 160.065 42.3829 158.842 47.0441C157.844 50.8502 159.612 54.8405 163.102 56.6572C167.376 58.8831 168.918 64.2326 166.483 68.3911C164.495 71.7869 165.122 76.1064 167.992 78.7977C171.507 82.0936 171.548 87.661 168.082 91.0082C165.252 93.7417 164.689 98.0697 166.727 101.436C169.223 105.558 167.76 110.93 163.519 113.218C160.057 115.086 158.347 119.102 159.402 122.893C160.692 127.536 157.835 132.314 153.134 133.373C149.295 134.237 146.566 137.644 146.558 141.579C146.549 146.397 142.508 150.227 137.696 149.979C133.766 149.776 130.219 152.319 129.15 156.106C127.841 160.743 122.917 163.341 118.35 161.803C114.621 160.548 110.519 162.04 108.468 165.398C105.956 169.51 100.514 170.683 96.5313 167.97C93.279 165.755 88.9271 166.085 86.046 168.765C82.5181 172.047 76.9612 171.709 73.858 168.022C71.3242 165.011 67.0447 164.155 63.547 165.958C59.264 168.167 54.0047 166.341 52.0114 161.954C50.3837 158.372 46.4938 156.393 42.6397 157.186C37.9197 158.157 33.3478 154.98 32.612 150.218C32.0111 146.328 28.7995 143.374 24.8744 143.097C20.0674 142.759 16.5222 138.466 17.0985 133.682C17.5691 129.776 15.2739 126.063 11.5689 124.738C7.03141 123.116 4.77574 118.026 6.62153 113.575C8.12866 109.94 6.92011 105.746 3.70991 103.471C-0.221543 100.684 -1.02028 95.1738 1.95798 91.3858C4.3899 88.2924 4.35771 83.9278 1.88044 80.871C-1.15344 77.1272 -0.436043 71.6062 3.45386 68.7616C6.63018 66.4395 7.77664 62.2282 6.21608 58.6159C4.30484 54.1921 6.48513 49.0695 10.9982 47.3801C14.6833 46.0007 16.9235 42.2549 16.3953 38.3557C15.7484 33.5804 19.23 29.236 24.0314 28.8269C27.952 28.4929 31.1197 25.4904 31.6631 21.5933C32.3286 16.8206 36.8531 13.5765 41.5869 14.478C45.4523 15.2141 49.3126 13.1776 50.8872 9.57161C52.8157 5.1554 58.0478 3.25239 62.3624 5.3976C65.8861 7.14925 70.1529 6.2298 72.6417 3.18236C75.6901 -0.54978 81.2414 -0.970626 84.8178 2.25919C87.7383 4.89654 92.0944 5.16222 95.3137 2.89938Z" fill="url(#paint0_linear)"/>
<defs>
<linearGradient id="paint0_linear" x1="102.559" y1="-2.19421" x2="187.91" y2="20.1769" gradientUnits="userSpaceOnUse">
<stop stop-color="#AD07C8"/>
<stop offset="0.854167" stop-color="#AD07C8"/>
</linearGradient>
</defs>
</svg>
