<svg width="66" height="66" viewBox="0 0 66 66" fill="none" xmlns="http://www.w3.org/2000/svg">
<path d="M47.3961 1.3203C46.9475 1.4028 46.5711 1.71733 46.4061 2.1453L45.1686 5.1978C41.5129 3.59936 37.4755 2.67639 33.2474 2.6403C33.0721 2.6042 32.8864 2.6042 32.7111 2.6403C32.6957 2.6403 32.6854 2.6403 32.6699 2.6403C16.2214 2.81561 2.88223 16.1136 2.63988 32.5465C2.54191 32.825 2.54191 33.1344 2.63988 33.4128C2.8616 49.9747 16.3864 63.3603 32.9999 63.3603C49.7525 63.3603 63.3599 49.753 63.3599 33.0003C63.3599 28.6794 62.4318 24.5544 60.8024 20.8315L63.8549 19.594C64.1849 19.4651 64.4479 19.2073 64.5922 18.8825C64.7314 18.5576 64.7314 18.1915 64.5974 17.8615C61.3902 10.122 55.3161 4.37795 48.1386 1.4028C47.9427 1.32545 47.7313 1.29967 47.5199 1.3203C47.4786 1.3203 47.4374 1.3203 47.3961 1.3203ZM48.3036 4.49655C53.9549 7.15717 58.6625 11.6637 61.5036 17.6965L59.1524 18.6865C59.1369 18.6865 59.1266 18.6865 59.1111 18.6865C58.6729 18.635 58.2397 18.8051 57.9561 19.1403C57.9561 19.1558 57.9561 19.1661 57.9561 19.1815L38.9811 27.019L46.9424 7.79655C46.9579 7.77077 46.9733 7.73983 46.9836 7.71405C47.0558 7.60061 47.1125 7.47686 47.1486 7.3428C47.1847 7.26545 47.2105 7.1778 47.2311 7.0953L48.3036 4.49655ZM31.5561 5.32155C31.5974 5.32155 31.6386 5.32155 31.6799 5.32155V31.6803H5.32113C5.98113 17.4387 17.33 6.04342 31.5561 5.32155ZM34.3199 5.32155C37.8055 5.48139 41.1055 6.25998 44.1374 7.5903L35.3099 28.9578C35.0985 29.4528 35.2068 30.0303 35.5883 30.4119C35.9699 30.7934 36.5474 30.9017 37.0424 30.6903L58.4099 21.8628C59.9 25.2711 60.7199 29.0403 60.7199 33.0003C60.7199 40.1778 57.9664 46.685 53.5011 51.604L34.3199 32.4228V5.32155ZM5.32113 34.3203H32.4224L51.6036 53.5015C46.6846 57.9669 40.1774 60.7203 32.9999 60.7203C18.1138 60.7203 6.00176 49.0362 5.32113 34.3203Z" fill="black"/>
</svg>
