<svg width="66" height="66" viewBox="0 0 66 66" fill="none" xmlns="http://www.w3.org/2000/svg">
<path d="M6.39364 7.91992C4.31567 7.91992 2.63989 9.66274 2.63989 11.7355V56.7599C2.63989 57.487 3.23286 58.0799 3.95989 58.0799H62.0399C62.7669 58.0799 63.3599 57.487 63.3599 56.7599V11.7355C63.3599 9.66274 61.6841 7.91992 59.6061 7.91992H6.39364ZM6.39364 10.5599H59.6061C60.2197 10.5599 60.7199 11.0549 60.7199 11.7355V23.7599H5.27989V11.7355C5.27989 11.0549 5.78005 10.5599 6.39364 10.5599ZM25.0799 13.1999V21.1199H56.7599V13.1999H25.0799ZM10.5599 14.5199C9.10067 14.5199 7.91989 15.7007 7.91989 17.1599C7.91989 18.6191 9.10067 19.7999 10.5599 19.7999C12.0191 19.7999 13.1999 18.6191 13.1999 17.1599C13.1999 15.7007 12.0191 14.5199 10.5599 14.5199ZM18.4799 14.5199C17.0207 14.5199 15.8399 15.7007 15.8399 17.1599C15.8399 18.6191 17.0207 19.7999 18.4799 19.7999C19.9391 19.7999 21.1199 18.6191 21.1199 17.1599C21.1199 15.7007 19.9391 14.5199 18.4799 14.5199ZM27.7199 15.8399H54.1199V18.4799H27.7199V15.8399ZM5.27989 26.3999H60.7199V55.4399H5.27989V26.3999ZM9.23989 30.3599V39.5999H38.2799V30.3599H9.23989ZM42.2399 30.3599V51.4799H56.7599V30.3599H42.2399ZM11.8799 32.9999H35.6399V36.9599H11.8799V32.9999ZM44.8799 32.9999H54.1199V48.8399H44.8799V32.9999ZM9.23989 42.2399V51.4799H38.2799V42.2399H9.23989ZM11.8799 44.8799H35.6399V48.8399H11.8799V44.8799Z" fill="black"/>
</svg>
