<svg width="66" height="66" viewBox="0 0 66 66" fill="none" xmlns="http://www.w3.org/2000/svg">
<g clip-path="url(#clip0)">
<path d="M32.8763 -0.0418888C32.8195 -0.0315763 32.7628 -0.0161076 32.7113 -0.000638802C32.0977 0.13858 31.6645 0.690299 31.68 1.31936V5.27936H0V50.1594H31.68V52.2219L20.1713 63.7306C19.6453 64.2565 19.6453 65.1022 20.1713 65.6281C20.6972 66.154 21.5428 66.154 22.0688 65.6281L31.68 56.0169V59.3994C31.6748 59.8737 31.9223 60.3172 32.3348 60.5595C32.7473 60.7967 33.2527 60.7967 33.6652 60.5595C34.0777 60.3172 34.3252 59.8737 34.32 59.3994V56.0169L43.9313 65.6281C44.4572 66.154 45.3028 66.154 45.8288 65.6281C46.3547 65.1022 46.3547 64.2565 45.8288 63.7306L34.32 52.2631V50.1594H66V5.27936H34.32V1.31936C34.3355 0.937799 34.1808 0.571705 33.9075 0.313892C33.6291 0.0509237 33.2527 -0.0779826 32.8763 -0.0418888ZM2.64 7.91936H63.36V47.5194H33.2475C33.0722 47.4833 32.8866 47.4833 32.7113 47.5194H2.64V7.91936ZM54.12 18.4794C52.6608 18.4794 51.48 19.6601 51.48 21.1194C51.48 21.2328 51.5058 21.3411 51.5213 21.4494L37.9913 31.8856C37.6767 31.7515 37.3261 31.6794 36.96 31.6794C36.5939 31.6794 36.2433 31.7515 35.9288 31.8856H35.8875L25.08 24.0069C25.0852 23.9244 25.08 23.8419 25.08 23.7594C25.08 22.3001 23.8992 21.1194 22.44 21.1194C20.9808 21.1194 19.8 22.3001 19.8 23.7594C19.8 23.8573 19.8309 23.9501 19.8413 24.0481L12.9113 29.2456C12.5967 29.1115 12.2461 29.0394 11.88 29.0394C10.4208 29.0394 9.24 30.2201 9.24 31.6794C9.24 33.1386 10.4208 34.3194 11.88 34.3194C13.3392 34.3194 14.52 33.1386 14.52 31.6794C14.52 31.5814 14.4891 31.4886 14.4788 31.3906L21.4088 26.1931C21.7233 26.3272 22.0739 26.3994 22.44 26.3994C22.8061 26.3994 23.1567 26.3272 23.4713 26.1931H23.5125L34.32 34.0719C34.3148 34.1544 34.32 34.2369 34.32 34.3194C34.32 35.7786 35.5008 36.9594 36.96 36.9594C38.4192 36.9594 39.6 35.7786 39.6 34.3194C39.6 34.2059 39.5742 34.0976 39.5588 33.9894L53.0888 23.5531H53.13C53.4342 23.6769 53.7694 23.7594 54.12 23.7594C55.5792 23.7594 56.76 22.5786 56.76 21.1194C56.76 19.6601 55.5792 18.4794 54.12 18.4794Z" fill="black"/>
</g>
<defs>
<clipPath id="clip0">
<rect width="66" height="66" fill="white"/>
</clipPath>
</defs>
</svg>
