<svg width="66" height="66" viewBox="0 0 66 66" fill="none" xmlns="http://www.w3.org/2000/svg">
<g clip-path="url(#clip0)">
<path d="M25.2913 11.5496C25.1431 11.5587 24.9976 11.5927 24.8607 11.6501C24.8607 11.6501 16.7532 15.0085 11.439 17.5334C11.2044 17.6452 11.008 17.8238 10.8744 18.0467C10.7409 18.2697 10.6761 18.5271 10.6882 18.7867C10.7003 19.0463 10.7888 19.2965 10.9425 19.5061C11.0963 19.7156 11.3084 19.8751 11.5524 19.9646C13.0403 20.5072 13.9066 21.1228 14.3239 21.6404C14.6749 22.0756 14.7778 22.4307 14.739 22.8959C12.7567 24.5056 11.1135 26.3221 9.6833 27.9233C8.37729 26.6792 5.95075 24.1901 1.31986 24.1901C1.1066 24.1903 0.896553 24.2421 0.707693 24.3412C0.518834 24.4402 0.356783 24.5836 0.235406 24.7589C0.11403 24.9343 0.0369411 25.1364 0.0107366 25.3481C-0.0154679 25.5597 0.00999171 25.7745 0.084937 25.9742C0.828288 27.9558 1.6424 29.1081 2.15259 30.0966C2.66279 31.0852 2.97502 31.9403 2.97502 33.9071C2.97502 36.0271 2.65972 36.8247 2.14486 37.7846C1.63 38.7445 0.788252 39.9125 0.0694683 42.054C0.00285733 42.2524 -0.0156121 42.4638 0.015584 42.6708C0.0467801 42.8778 0.126747 43.0744 0.248887 43.2444C0.371027 43.4144 0.531838 43.5529 0.718051 43.6485C0.904264 43.7441 1.11054 43.794 1.31986 43.7942C5.64898 43.7942 8.11744 41.4113 9.67041 40.0327C11.562 42.0839 13.2423 44.0788 15.582 45.6504C16.5709 46.3147 17.6756 46.888 18.9465 47.352C18.9509 47.4047 18.9598 47.448 18.962 47.499C18.9819 47.9591 18.9851 48.4262 18.9929 48.7055C19.027 49.9399 18.5808 51.2171 17.6961 52.2865C17.5382 52.4778 17.4373 52.7097 17.4051 52.9556C17.3728 53.2016 17.4105 53.4516 17.5139 53.6771C17.6172 53.9026 17.782 54.0944 17.9893 54.2306C18.1966 54.3668 18.4381 54.4418 18.6861 54.447C21.7054 54.5075 24.5989 53.7158 27.1862 52.632C30.2228 51.3598 32.2739 49.8131 33.6624 47.4448C35.0217 46.9485 36.2957 46.358 37.4213 45.769C40.2104 44.3097 42.1496 42.8248 42.1496 42.8248C42.3076 42.7036 42.4362 42.5482 42.5256 42.3702C42.615 42.1922 42.663 41.9963 42.666 41.7972C42.669 41.598 42.6269 41.4008 42.5428 41.2203C42.4587 41.0397 42.3349 40.8805 42.1806 40.7546L36.0962 35.7762L43.2608 28.6116C43.5083 28.3641 43.6473 28.0284 43.6473 27.6783C43.6473 27.3283 43.5083 26.9926 43.2608 26.7451C41.4093 24.8927 38.4218 22.3444 34.6628 20.6014C33.0628 16.9718 30.9395 14.7128 29.1559 13.3904C27.2878 12.0054 25.6831 11.5883 25.6831 11.5883C25.5552 11.5559 25.4231 11.5428 25.2913 11.5496ZM25.3531 14.3133C25.563 14.3717 26.2471 14.519 27.5832 15.5096C28.6276 16.2839 29.8535 17.4756 30.9863 19.2711C29.4896 18.879 27.9134 18.6394 26.2632 18.6394C22.5429 18.6394 19.5515 19.7005 17.0619 21.2227C16.8973 20.7876 16.6871 20.3646 16.3813 19.9852C16.0293 19.5487 15.2696 19.3112 14.7648 18.9565C19.4253 16.8494 24.8637 14.5167 25.3531 14.3133ZM26.2632 21.2794C32.2351 21.2794 37.3098 24.9995 40.3372 27.8021L33.1984 34.9409C33.0681 35.0714 32.9667 35.2276 32.9005 35.3996C32.8343 35.5717 32.8049 35.7557 32.8141 35.9397C32.8233 36.1238 32.871 36.304 32.9541 36.4685C33.0371 36.633 33.1537 36.7784 33.2963 36.8951L39.0868 41.6337C38.3728 42.1343 37.9177 42.5316 36.1993 43.4307C33.6157 44.7826 30.2407 46.0747 27.2661 46.032C22.1676 45.9586 19.295 44.9643 17.0542 43.459C14.8133 41.9538 13.137 39.8031 10.7532 37.3179C10.5299 37.0851 10.229 36.9421 9.90742 36.916C9.58584 36.8899 9.26583 36.9824 9.00783 37.1762C7.44151 38.3539 5.9778 40.0629 3.60666 40.7855C3.89591 40.2643 4.18042 39.5729 4.47033 39.0324C5.10882 37.842 5.61502 36.3437 5.61502 33.9071C5.61502 31.6116 5.12996 30.108 4.49869 28.8849C4.21925 28.3435 3.92665 27.7014 3.63759 27.1859C6.18477 27.9088 7.44545 29.688 9.03361 30.8237C9.29652 31.0113 9.61909 31.096 9.94026 31.0618C10.2614 31.0276 10.5589 30.8768 10.7764 30.638C14.5187 26.5221 18.4635 21.2794 26.2632 21.2794ZM57.1775 24.7187C57.1309 24.7213 57.0844 24.7265 57.0383 24.7341L53.001 25.3735C52.9716 25.3777 52.9423 25.3828 52.9133 25.389C51.3979 25.7349 50.3587 26.9586 49.9278 28.4234C44.8721 29.8274 43.2041 34.4846 43.2041 34.4846C43.1069 34.7916 43.1252 35.1235 43.2556 35.4179C43.2556 35.4179 45.2807 39.5941 50.3584 40.7546C51.0796 41.738 52.0629 42.3616 52.9313 42.7062C53.978 43.1216 54.901 43.2734 54.901 43.2734C55.0903 43.3053 55.2842 43.2955 55.4693 43.2447C55.6543 43.1939 55.8261 43.1034 55.9726 42.9795C56.1191 42.8555 56.2369 42.7011 56.3176 42.5271C56.3984 42.353 56.4402 42.1634 56.4402 41.9715V40.5122C58.1065 39.9703 59.4264 39.2108 60.4208 38.3492C61.244 39.0759 62.5262 40.1049 64.6799 40.1049C64.8943 40.1047 65.1054 40.0523 65.295 39.9522C65.4846 39.8521 65.647 39.7073 65.7681 39.5303C65.8891 39.3534 65.9653 39.1496 65.99 38.9366C66.0146 38.7237 65.9871 38.5079 65.9096 38.3079C64.7616 35.3466 64.7666 33.7948 65.9148 30.754C65.9903 30.5542 66.0161 30.3391 65.9902 30.1271C65.9642 29.9151 65.8872 29.7126 65.7658 29.5369C65.6444 29.3612 65.4821 29.2176 65.293 29.1184C65.1038 29.0192 64.8934 28.9674 64.6799 28.9674C62.4361 28.9674 61.1515 30.0084 60.4105 30.6999C59.6613 30.0761 58.7812 29.5299 57.755 29.0576L58.513 26.3996C58.5706 26.1978 58.5793 25.9851 58.5383 25.7792C58.4973 25.5734 58.4078 25.3803 58.2772 25.2159C58.1467 25.0516 57.9788 24.9207 57.7875 24.8343C57.5963 24.7478 57.3872 24.7081 57.1775 24.7187ZM30.8368 26.1598C29.3888 26.1598 28.2123 27.3337 28.2123 28.7818C28.2123 30.2298 29.3888 31.4063 30.8368 31.4063C32.2849 31.4063 33.4588 30.2298 33.4588 28.7818C33.4588 27.3337 32.2849 26.1598 30.8368 26.1598ZM55.4063 27.6654L54.9113 29.3928C54.8186 29.7162 54.8529 30.0629 55.0072 30.3619C55.1615 30.6609 55.4242 30.8897 55.7415 31.0015C57.3425 31.5684 58.8178 32.5854 59.4463 33.2909C59.6628 33.5333 59.9611 33.6874 60.2841 33.7235C60.6071 33.7597 60.9321 33.6754 61.1968 33.4869C61.9201 32.9704 62.407 32.4919 62.9757 32.1256C62.6392 33.7228 62.6377 35.349 62.968 36.9287C62.3888 36.564 61.8696 36.0914 61.2252 35.6061C60.9612 35.4073 60.6323 35.3148 60.3034 35.3468C59.9745 35.3788 59.6696 35.5329 59.4488 35.7788C58.7001 36.6124 56.959 37.8839 54.8392 38.344C54.5445 38.4083 54.2807 38.5715 54.0917 38.8065C53.9026 39.0415 53.7998 39.3341 53.8002 39.6357V40.1771C53.0996 39.8717 52.4386 39.4202 52.2739 39.0711C52.1837 38.8797 52.0487 38.7128 51.8805 38.5845C51.7122 38.4561 51.5156 38.3702 51.3071 38.3337C47.6033 37.6891 46.3247 35.451 45.9885 34.7965C46.2546 34.0823 47.3569 31.4556 51.1189 30.7334C51.4202 30.6753 51.6918 30.514 51.887 30.2774C52.0823 30.0407 52.189 29.7434 52.1888 29.4366C52.1888 28.6643 52.617 28.1698 53.496 27.9671L55.4063 27.6654ZM50.4873 32.3112C49.7586 32.3112 49.1673 32.9026 49.1673 33.6312C49.1673 34.3599 49.7586 34.9512 50.4873 34.9512C51.2159 34.9512 51.8073 34.3599 51.8073 33.6312C51.8073 32.9026 51.2159 32.3112 50.4873 32.3112ZM21.6174 48.0971C23.2354 48.435 25.077 48.6385 27.2274 48.6694C27.9068 48.6792 28.5809 48.6238 29.2513 48.5405C28.4506 49.1288 27.4678 49.65 26.1653 50.1957C24.5491 50.8727 22.84 51.2966 21.1173 51.5466C21.4679 50.6117 21.6579 49.6303 21.6303 48.6333C21.628 48.5503 21.6206 48.2768 21.6174 48.0971Z" fill="black"/>
</g>
<defs>
<clipPath id="clip0">
<rect width="66" height="66" fill="white"/>
</clipPath>
</defs>
</svg>
