<svg width="66" height="66" viewBox="0 0 66 66" fill="none" xmlns="http://www.w3.org/2000/svg">
<g clip-path="url(#clip0)">
<path d="M65.4746 11.7458C65.3405 11.3539 64.9435 10.9569 64.5464 10.9569C64.1546 10.8228 63.6235 10.9569 63.3605 11.3539L56.3635 18.3458C55.9664 18.7428 55.1775 18.7428 54.7805 18.3458L47.7835 11.3539C47.3864 10.9569 47.3864 10.1628 47.7835 9.76579L54.7805 2.63985C55.0435 2.37688 55.1775 1.84579 55.1775 1.45391C55.0435 1.05688 54.7805 0.659848 54.3835 0.525786C49.1035 -1.32015 40.6575 2.50579 37.2235 5.93985C33.7946 9.37391 33.3975 14.1228 36.1664 19.2739L35.9035 19.5369L33.0005 16.4998C30.4946 13.7258 27.0605 12.1428 23.2346 12.0139C19.4035 11.8798 15.9746 13.3339 13.3346 15.9739L4.09457 25.2139C-1.18543 30.4939 -1.18543 39.0739 4.09457 44.3539L6.60051 46.8598L2.64051 50.5569C1.58348 51.6139 0.397542 53.4598 0.000510871 55.8369C-0.133552 57.8169 0.000510756 60.5858 2.64051 63.3598C4.75457 65.4739 6.99754 65.9998 8.84348 65.9998C9.24051 65.9998 9.76645 65.9998 10.1635 65.8658C12.5405 65.4739 14.3864 64.2828 15.4435 63.2258L19.9346 58.6058C20.1975 58.6058 20.4605 58.7398 20.8575 58.7398C22.9664 58.7398 24.9464 57.6828 26.0035 55.9658C26.6635 56.2339 27.4575 56.3628 28.1175 56.3628C31.1546 56.3628 33.6605 54.2539 34.1864 51.3458C34.5835 51.4798 34.9805 51.4798 35.3775 51.4798C38.4146 51.4798 40.9205 49.3658 41.4464 46.4628C41.8435 46.5969 42.2405 46.5969 42.6375 46.5969C46.0664 46.5969 48.8405 43.8228 48.8405 40.3939C48.8405 38.5428 47.9175 36.6969 46.4635 35.5058L43.8235 32.8658L46.7264 29.9628C51.8775 32.7369 56.4975 32.3398 60.0605 28.9058C63.4946 25.3428 67.3205 16.8969 65.4746 11.7458ZM13.5975 61.3798C12.9375 62.0398 11.4835 62.9628 9.76645 63.2258C7.78645 63.4939 6.07457 62.8339 4.62051 61.3798C3.03754 59.7969 2.50645 58.0798 2.77457 56.2339C3.03754 54.5169 3.96051 53.1969 4.62051 52.4028L8.44645 48.7058L16.1035 56.3628C16.5005 56.7598 16.8975 57.1569 17.4235 57.5539L13.5975 61.3798ZM44.8805 37.4858C45.8035 38.1458 46.3346 39.2028 46.3346 40.2598C46.3346 42.2398 44.7464 43.8228 42.7664 43.8228C42.1064 43.8228 41.5805 43.6939 40.9205 43.2969L38.5435 41.8428L38.9405 44.6169C38.9405 44.7458 38.9405 44.8798 38.9405 45.1428C38.9405 47.1228 37.3575 48.7058 35.3775 48.7058C34.7175 48.7058 34.1864 48.5769 33.5264 48.1798L31.1546 46.7258L31.5464 49.4998C31.5464 49.6339 31.5464 49.7628 31.5464 50.0258C31.5464 52.0058 29.9635 53.5939 27.9835 53.5939C27.3235 53.5939 26.5346 53.3258 26.0035 52.9339L24.5546 52.0058L24.0235 53.5939C23.4975 55.0428 22.1775 55.9658 20.7235 55.9658C19.6664 55.9658 18.6146 55.4398 17.9546 54.6458L5.80645 42.5028C1.58348 38.2798 1.58348 31.2828 5.80645 27.0598L15.0464 17.8198C17.1605 15.7058 20.0635 14.5198 23.1005 14.6539C26.1375 14.7828 28.9064 15.9739 31.0205 18.3458L34.0575 21.5169L33.2635 22.3058L33.0005 21.9139C32.4746 21.3828 31.6805 21.3828 31.1546 21.9139C30.6235 22.4398 30.6235 23.2339 31.1546 23.7598L44.7464 37.3569L44.8805 37.4858ZM58.0805 26.9258C54.5175 30.4939 50.1605 29.0398 47.1235 27.0598C46.5975 26.7969 45.9375 26.7969 45.5405 27.3228L41.9775 30.8858L35.1146 24.0228L38.6775 20.4598C39.0746 20.0628 39.2035 19.4028 38.9405 18.8769C37.0946 15.7058 35.6405 11.3539 39.0746 7.91985C41.5805 5.41391 46.9946 2.77391 51.0835 2.63985L45.9375 7.78579C44.4835 9.23985 44.4835 11.6169 45.9375 13.1998L52.9346 20.1969C54.3835 21.6458 56.7605 21.6458 58.3435 20.1969L63.4946 15.0458C63.3605 19.0058 60.5864 24.4198 58.0805 26.9258Z" fill="black"/>
</g>
<defs>
<clipPath id="clip0">
<rect width="66" height="66" fill="white"/>
</clipPath>
</defs>
</svg>
