<svg width="66" height="66" viewBox="0 0 66 66" fill="none" xmlns="http://www.w3.org/2000/svg">
<g clip-path="url(#clip0)">
<path d="M3.71169 0C1.68528 0 -0.000810547 1.68609 -0.000810547 3.7125V10.3125C-0.011123 10.395 -0.011123 10.4775 -0.000810547 10.56V52.8C-0.000810547 53.527 0.592158 54.12 1.31919 54.12H31.6792C32.1536 54.1252 32.597 53.8777 32.8393 53.4652C33.0765 53.0527 33.0765 52.5473 32.8393 52.1348C32.597 51.7223 32.1536 51.4748 31.6792 51.48H2.63919V11.88H55.4392V33C55.434 33.4744 55.6815 33.9178 56.094 34.1602C56.5065 34.3973 57.0118 34.3973 57.4243 34.1602C57.8368 33.9178 58.0843 33.4744 58.0792 33V10.56C58.0895 10.4775 58.0895 10.395 58.0792 10.3125V3.7125C58.0792 1.68609 56.3931 0 54.3667 0H3.71169ZM3.71169 2.64H54.3667C54.9803 2.64 55.4392 3.09891 55.4392 3.7125V9.24H2.63919V3.7125C2.63919 3.09891 3.0981 2.64 3.71169 2.64ZM9.23919 19.8V22.44H14.5192V19.8H9.23919ZM18.4792 19.8V22.44H48.8392V19.8H18.4792ZM9.23919 26.4V29.04H14.5192V26.4H9.23919ZM18.4792 26.4V29.04H48.8392V26.4H18.4792ZM9.23919 33V35.64H14.5192V33H9.23919ZM18.4792 33V35.64H36.9592V33H18.4792ZM47.5192 34.32C40.2437 34.32 34.3192 40.2445 34.3192 47.52C34.3192 54.7955 40.2437 60.72 47.5192 60.72C50.68 60.72 53.5778 59.6114 55.8517 57.75L63.7304 65.6288L65.6279 63.7313L57.7492 55.8525C59.6106 53.5786 60.7192 50.6808 60.7192 47.52C60.7192 40.2445 54.7947 34.32 47.5192 34.32ZM47.5192 36.96C53.3664 36.96 58.0792 41.6728 58.0792 47.52C58.0792 53.3672 53.3664 58.08 47.5192 58.08C41.672 58.08 36.9592 53.3672 36.9592 47.52C36.9592 41.6728 41.672 36.96 47.5192 36.96ZM9.23919 39.6V42.24H14.5192V39.6H9.23919ZM18.4792 39.6V42.24H31.6792V39.6H18.4792Z" fill="black"/>
</g>
<defs>
<clipPath id="clip0">
<rect width="66" height="66" fill="white"/>
</clipPath>
</defs>
</svg>
