<svg width="66" height="66" viewBox="0 0 66 66" fill="none" xmlns="http://www.w3.org/2000/svg">
<path d="M7.92 0C3.56297 0 0 3.56297 0 7.92C0 12.277 3.56297 15.84 7.92 15.84C9.62672 15.84 11.2045 15.2831 12.4988 14.355L22.77 24.6675C20.9086 26.9414 19.8 29.8392 19.8 33C19.8 35.6142 20.5889 38.0428 21.9038 40.095L13.2413 46.9425C11.8336 45.6638 9.96187 44.88 7.92 44.88C3.56297 44.88 0 48.443 0 52.8C0 57.157 3.56297 60.72 7.92 60.72C12.277 60.72 15.84 57.157 15.84 52.8C15.84 51.4181 15.4791 50.1394 14.85 49.005L23.5538 42.1575C25.9566 44.6325 29.2875 46.2 33 46.2C34.7531 46.2 36.4186 45.8752 37.95 45.2513L41.415 51.81C39.5227 53.2589 38.28 55.5225 38.28 58.08C38.28 62.437 41.843 66 46.2 66C50.557 66 54.12 62.437 54.12 58.08C54.12 53.723 50.557 50.16 46.2 50.16C45.3389 50.16 44.5036 50.3147 43.725 50.5725L40.26 44.0138C42.7505 42.3689 44.6531 39.8991 45.5813 37.0013L50.16 37.95C50.1548 38.0583 50.16 38.1717 50.16 38.28C50.16 42.637 53.723 46.2 58.08 46.2C62.437 46.2 66 42.637 66 38.28C66 33.923 62.437 30.36 58.08 30.36C54.7336 30.36 51.8513 32.4431 50.6963 35.3925L46.1175 34.4025C46.1639 33.9436 46.2 33.4692 46.2 33C46.2 27.8077 43.1527 23.3114 38.775 21.1613L40.7963 15.7163C41.2603 15.7988 41.7553 15.84 42.24 15.84C46.597 15.84 50.16 12.277 50.16 7.92C50.16 3.56297 46.597 0 42.24 0C37.883 0 34.32 3.56297 34.32 7.92C34.32 10.8436 35.9494 13.3959 38.3213 14.7675L36.3 20.2538C35.2378 19.9753 34.1447 19.8 33 19.8C29.8392 19.8 26.9414 20.9086 24.6675 22.77L14.355 12.4988C15.2831 11.2045 15.84 9.62672 15.84 7.92C15.84 3.56297 12.277 0 7.92 0ZM7.92 2.64C10.8539 2.64 13.2 4.98609 13.2 7.92C13.2 10.8539 10.8539 13.2 7.92 13.2C4.98609 13.2 2.64 10.8539 2.64 7.92C2.64 4.98609 4.98609 2.64 7.92 2.64ZM42.24 2.64C45.1739 2.64 47.52 4.98609 47.52 7.92C47.52 10.8539 45.1739 13.2 42.24 13.2C39.3061 13.2 36.96 10.8539 36.96 7.92C36.96 4.98609 39.3061 2.64 42.24 2.64ZM33 22.44C38.8523 22.44 43.56 27.158 43.56 33C43.56 38.8523 38.8523 43.56 33 43.56C27.1528 43.56 22.44 38.8523 22.44 33C22.44 30.1589 23.5538 27.5963 25.3688 25.6988C25.477 25.6163 25.575 25.5183 25.6575 25.41C27.555 23.5744 30.1383 22.44 33 22.44ZM58.08 33C61.0139 33 63.36 35.3461 63.36 38.28C63.36 41.2139 61.0139 43.56 58.08 43.56C55.1461 43.56 52.8 41.2139 52.8 38.28C52.8 35.3461 55.1461 33 58.08 33ZM7.92 47.52C10.8539 47.52 13.2 49.8661 13.2 52.8C13.2 55.7339 10.8539 58.08 7.92 58.08C4.98609 58.08 2.64 55.7339 2.64 52.8C2.64 49.8661 4.98609 47.52 7.92 47.52ZM46.2 52.8C49.1339 52.8 51.48 55.1461 51.48 58.08C51.48 61.0139 49.1339 63.36 46.2 63.36C43.2661 63.36 40.92 61.0139 40.92 58.08C40.92 56.0794 42.0131 54.3572 43.6425 53.46C43.6838 53.4497 43.725 53.4342 43.7663 53.4188C43.7817 53.4084 43.792 53.3878 43.8075 53.3775C43.8333 53.3672 43.8642 53.3517 43.89 53.3363C44.5861 53.0011 45.3698 52.8 46.2 52.8Z" fill="black"/>
</svg>
